



<svg id="Layer_1" data-name="Layer 1" xmlns="http://www.w3.org/2000/svg" viewBox="0 0 389.61 106.53"><defs><style>.cls-1{fill:#e11f26;}</style></defs><rect class="cls-1" x="224.5" y="1.86" width="20.65" height="102.97"/><polygon class="cls-1" points="61.97 22.45 61.97 1.85 9.98 1.85 9.98 1.86 0 1.86 0 104.83 9.98 104.83 20.65 104.83 61.97 104.83 61.97 84.23 20.65 84.23 20.65 63.64 51.85 63.64 51.85 43.04 20.65 43.04 20.65 22.45 61.97 22.45"/><polygon class="cls-1" points="389.61 22.45 389.61 1.85 337.63 1.85 337.63 1.86 327.64 1.86 327.64 104.83 337.63 104.83 348.29 104.83 389.61 104.83 389.61 84.23 348.29 84.23 348.29 63.64 379.5 63.64 379.5 43.04 348.29 43.04 348.29 22.45 389.61 22.45"/><path class="cls-1" d="M310.34,472l-5.92-5.6a21.84,21.84,0,0,1-8.54,5.91,32.62,32.62,0,0,1-11.83,1.95q-17.82,0-27-13.53t-9.16-39.84q0-26.16,9.16-39.66t27-13.5q15.1,0,24,9.19t8.91,25a1.24,1.24,0,0,1-.08.27,1.24,1.24,0,0,0-.08.27.38.38,0,0,0,.16.28H297.68q-.26-9.92-3.65-14.9t-10-5q-8.06,0-11.83,9.26t-3.77,28.8q0,20.1,4,29.31t12.73,9.23a11.15,11.15,0,0,0,9.07-4.16c2.27-2.79,3.41-6.54,3.41-11.28V434H284.05V420.89H317V472Z" transform="translate(-102.83 -367.68)"/><path class="cls-1" d="M399.39,369.55v52.59c0,.19,0,.41,0,.61v5.4l-18.69-54.06-1.37-4.54H358.54V472.34h20.67V405.5l23.1,66.84h18V369.55Z" transform="translate(-102.83 -367.68)"/><path class="cls-1" d="M216.43,369.55v52.59c0,.19,0,.41,0,.61v5.4l-18.68-54.06-1.37-4.54H175.58V472.34h20.66V405.5l23.11,66.84h18V369.55Z" transform="translate(-102.83 -367.68)"/></svg>